<svg width="18" height="17" viewBox="0 0 18 17" fill="none" xmlns="http://www.w3.org/2000/svg">
<path d="M13.501 11.1745C13.3952 11.2646 13.2584 11.3138 13.1086 11.2975C12.8188 11.266 12.6066 10.9864 12.6398 10.68L13.2751 4.82781L7.74029 4.2256C7.45056 4.19407 7.2383 3.91446 7.27156 3.60812C7.30481 3.30177 7.5721 3.07434 7.86183 3.10586L13.9261 3.76569C14.2158 3.79721 14.4281 4.07683 14.3948 4.38317L13.6988 10.7952C13.6816 10.9537 13.6068 11.0845 13.501 11.1745Z" fill="#292D32"/>
<path d="M14.0928 4.84625L4.78016 12.7636C4.55329 12.9565 4.21576 12.9198 4.0356 12.6827C3.85545 12.4455 3.89419 12.089 4.12106 11.8961L13.4337 3.97871C13.6606 3.78583 13.9981 3.82253 14.1783 4.05965C14.3584 4.29678 14.3197 4.65337 14.0928 4.84625Z" fill="#292D32"/>
</svg>
